<svg width="90" height="30" viewBox="0 0 90 30" fill="none" xmlns="http://www.w3.org/2000/svg">
<g clip-path="url(#clip0_1_446)">
<path d="M82.671 0H7.157H6.335C6.105 0.002 5.878 0.006 5.645 0.01C5.142 0.016 4.639 0.06 4.141 0.142C3.645 0.225 3.164 0.382 2.714 0.608C2.266 0.836 1.856 1.133 1.499 1.486C1.141 1.839 0.843 2.246 0.615 2.693C0.387 3.139 0.229 3.617 0.145 4.111C0.062 4.603 0.017 5.101 0.011 5.601C0.004 5.83 0.004 6.059 0 6.287V23.5C0.004 23.731 0.004 23.955 0.011 24.187C0.017 24.687 0.062 25.185 0.146 25.677C0.228 26.171 0.386 26.649 0.615 27.095C0.842 27.541 1.141 27.947 1.499 28.298C1.854 28.653 2.265 28.949 2.714 29.175C3.164 29.402 3.644 29.56 4.141 29.645C4.639 29.726 5.141 29.77 5.646 29.777C5.878 29.782 6.106 29.785 6.336 29.785L7.157 29.786H82.671L83.485 29.785C83.714 29.785 83.948 29.782 84.177 29.777C84.68 29.771 85.182 29.727 85.678 29.645C86.177 29.56 86.659 29.401 87.111 29.175C87.561 28.949 87.97 28.653 88.325 28.298C88.682 27.946 88.981 27.54 89.212 27.095C89.438 26.649 89.595 26.171 89.676 25.677C89.76 25.185 89.806 24.687 89.816 24.187C89.819 23.955 89.819 23.731 89.819 23.5C89.824 23.23 89.824 22.96 89.824 22.686V7.1C89.824 6.828 89.824 6.557 89.819 6.287C89.819 6.059 89.819 5.83 89.816 5.602C89.806 5.102 89.76 4.604 89.676 4.111C89.595 3.618 89.438 3.14 89.212 2.693C88.748 1.8 88.014 1.07 87.11 0.61C86.658 0.385 86.176 0.228 85.677 0.143C85.181 0.061 84.679 0.017 84.177 0.012C83.947 0.008 83.713 0.004 83.484 0.002L82.671 0Z" fill="#A6A6A6"/>
<path d="M6.33903 29.136C6.11003 29.136 5.88703 29.133 5.66003 29.128C5.19003 29.122 4.72103 29.081 4.25703 29.006C3.82403 28.932 3.40503 28.795 3.01403 28.598C2.62503 28.403 2.27103 28.148 1.96403 27.841C1.65403 27.538 1.39503 27.187 1.19903 26.801C1.00003 26.413 0.863029 25.997 0.790029 25.567C0.713029 25.106 0.671029 24.639 0.665029 24.171C0.661029 24.014 0.655029 23.491 0.655029 23.491V6.28802C0.655029 6.28802 0.661029 5.77302 0.665029 5.62202C0.671029 5.15502 0.713029 4.68902 0.790029 4.22802C0.861029 3.79802 0.999029 3.38002 1.19803 2.99002C1.39303 2.60502 1.65103 2.25302 1.96003 1.95002C2.26803 1.64202 2.62303 1.38602 3.01203 1.18802C3.40303 0.992024 3.82203 0.855024 4.25303 0.783024C4.72003 0.707024 5.19003 0.666024 5.66203 0.660024L6.34003 0.650024H83.482L84.168 0.660024C84.635 0.666024 85.102 0.706024 85.563 0.781024C85.999 0.855024 86.422 0.992024 86.817 1.18902C87.597 1.58702 88.23 2.21802 88.63 2.99102C88.825 3.37802 88.96 3.79202 89.032 4.21902C89.109 4.68402 89.153 5.15302 89.162 5.62402C89.164 5.83502 89.164 6.06202 89.164 6.28702C89.17 6.56702 89.17 6.83202 89.17 7.10002V22.686C89.17 22.956 89.17 23.22 89.164 23.486C89.164 23.728 89.164 23.95 89.161 24.179C89.153 24.641 89.11 25.102 89.033 25.559C88.963 25.992 88.826 26.411 88.628 26.802C88.43 27.184 88.173 27.532 87.865 27.834C87.559 28.142 87.204 28.4 86.815 28.596C86.421 28.794 85.998 28.932 85.563 29.006C85.099 29.08 84.63 29.121 84.16 29.126C83.94 29.132 83.71 29.135 83.486 29.135L82.672 29.136L6.34003 29.135L6.33903 29.136Z" fill="black"/>
<path d="M18.593 15.117C18.61 13.854 19.277 12.687 20.363 12.025C19.675 11.051 18.564 10.455 17.366 10.418C16.106 10.288 14.884 11.167 14.241 11.167C13.587 11.167 12.598 10.431 11.533 10.453C10.132 10.498 8.85704 11.269 8.17504 12.484C6.72404 14.978 7.80604 18.643 9.19704 20.658C9.89304 21.645 10.706 22.748 11.77 22.708C12.811 22.666 13.2 22.05 14.457 22.05C15.702 22.05 16.067 22.709 17.152 22.684C18.27 22.666 18.973 21.692 19.645 20.696C20.145 19.993 20.529 19.216 20.785 18.393C19.458 17.836 18.595 16.546 18.593 15.117ZM16.543 9.09304C17.152 8.36704 17.453 7.43504 17.379 6.49304C16.449 6.59004 15.589 7.03204 14.972 7.72904C14.362 8.41804 14.053 9.31904 14.113 10.232C15.056 10.242 15.952 9.82204 16.543 9.09204V9.09304Z" fill="white"/>
<path d="M31.755 20.21H28.202L27.349 22.709H25.843L29.209 13.462H30.773L34.138 22.709H32.608L31.755 20.209V20.21ZM28.57 19.056H31.386L29.998 15H29.959L28.569 19.056H28.57ZM41.406 19.338C41.406 21.433 40.276 22.78 38.57 22.78C37.688 22.825 36.858 22.367 36.432 21.6H36.4V24.94H35.005V15.967H36.355V17.087H36.381C36.826 16.325 37.657 15.867 38.544 15.895C40.269 15.895 41.406 17.248 41.406 19.337V19.338ZM39.972 19.338C39.972 17.973 39.262 17.076 38.176 17.076C37.111 17.076 36.394 17.992 36.394 19.338C36.394 20.697 37.111 21.607 38.176 21.607C39.261 21.607 39.972 20.716 39.972 19.338ZM48.886 19.338C48.886 21.433 47.756 22.78 46.05 22.78C45.168 22.825 44.338 22.367 43.912 21.6H43.88V24.94H42.485V15.967H43.835V17.087H43.86C44.305 16.325 45.137 15.867 46.024 15.895C47.749 15.895 48.886 17.248 48.886 19.337V19.338ZM47.452 19.338C47.452 17.973 46.742 17.076 45.656 17.076C44.591 17.076 43.874 17.992 43.874 19.338C43.874 20.697 44.591 21.607 45.656 21.607C46.741 21.607 47.452 20.716 47.452 19.338ZM53.83 20.132C53.933 21.049 54.831 21.652 56.058 21.652C57.234 21.652 58.08 21.049 58.08 20.222C58.08 19.505 57.57 19.075 56.362 18.78L55.154 18.492C53.442 18.082 52.648 17.287 52.648 15.999C52.648 14.403 54.049 13.307 56.039 13.307C58.009 13.307 59.359 14.403 59.405 15.999H57.997C57.912 15.076 57.143 14.519 56.02 14.519C54.896 14.519 54.127 15.083 54.127 15.903C54.127 16.557 54.617 16.941 55.819 17.236L56.846 17.486C58.759 17.935 59.554 18.696 59.554 20.049C59.554 21.779 58.164 22.863 55.955 22.863C53.888 22.863 52.492 21.805 52.402 20.133H53.83V20.132ZM62.564 14.371V15.967H63.857V17.063H62.563V20.78C62.563 21.357 62.822 21.626 63.39 21.626C63.543 21.623 63.697 21.613 63.849 21.594V22.684C63.593 22.731 63.334 22.752 63.074 22.748C61.698 22.748 61.162 22.235 61.162 20.928V17.062H60.173V15.967H61.162V14.371H62.563H62.564ZM64.605 19.338C64.605 17.217 65.865 15.884 67.828 15.884C69.798 15.884 71.052 17.217 71.052 19.338C71.052 21.465 69.805 22.793 67.828 22.793C65.852 22.793 64.605 21.465 64.605 19.338ZM69.631 19.338C69.631 17.883 68.959 17.024 67.828 17.024C66.698 17.024 66.026 17.89 66.026 19.338C66.026 20.799 66.698 21.652 67.828 21.652C68.958 21.652 69.631 20.799 69.631 19.338ZM72.203 15.967H73.533V17.114H73.565C73.751 16.376 74.433 15.867 75.2 15.896C75.36 15.896 75.52 15.913 75.678 15.948V17.242C75.475 17.181 75.263 17.152 75.051 17.159C74.641 17.142 74.244 17.304 73.964 17.603C73.684 17.901 73.551 18.305 73.597 18.71V22.709H72.203V15.967ZM82.109 20.729C81.922 21.953 80.72 22.793 79.183 22.793C77.206 22.793 75.979 21.479 75.979 19.37C75.979 17.256 77.213 15.884 79.124 15.884C81.004 15.884 82.187 17.165 82.187 19.21V19.684H77.387V19.767C77.342 20.269 77.517 20.767 77.867 21.132C78.217 21.497 78.707 21.696 79.215 21.677C79.892 21.74 80.53 21.354 80.785 20.729H82.109ZM77.394 18.717H80.791C80.817 18.265 80.651 17.824 80.335 17.5C80.018 17.175 79.58 16.996 79.125 17.005C78.665 17.003 78.225 17.182 77.9 17.503C77.575 17.825 77.392 18.261 77.394 18.717Z" fill="white"/>
<path d="M27.5771 8.38006H28.1761C28.3841 8.40606 28.5941 8.34406 28.7541 8.21006C28.9141 8.07506 29.0111 7.88006 29.0201 7.67106C29.0201 7.26106 28.7101 6.99706 28.1821 6.99706C27.9691 6.96706 27.7521 7.02506 27.5821 7.15606C27.4121 7.28606 27.3021 7.48006 27.2781 7.69306H26.6221C26.6441 7.30706 26.8271 6.94706 27.1271 6.70206C27.4271 6.45506 27.8171 6.34406 28.2041 6.39306C29.0851 6.39306 29.7061 6.88306 29.7061 7.58806C29.7111 8.07506 29.3721 8.49806 28.8931 8.60406V8.65706C29.4661 8.68206 29.9111 9.16206 29.8891 9.73106C29.8481 10.1281 29.6471 10.4921 29.3321 10.7411C29.0181 10.9891 28.6151 11.1011 28.2161 11.0521C27.8161 11.1061 27.4111 10.9971 27.0941 10.7491C26.7761 10.5011 26.5741 10.1361 26.5341 9.73706H27.2021C27.2421 10.1631 27.6351 10.4371 28.2161 10.4371C28.7961 10.4371 29.1761 10.1291 29.1761 9.69506C29.1761 9.25506 28.8191 8.98306 28.1951 8.98306H27.5771V8.38006ZM30.6481 9.99706C30.6481 9.39306 31.1011 9.04506 31.9051 8.99506L32.8201 8.94306V8.65306C32.8201 8.29906 32.5851 8.09906 32.1281 8.09906C31.7561 8.09906 31.4981 8.23506 31.4241 8.47206H30.7781C30.8461 7.89606 31.3931 7.52706 32.1601 7.52706C33.0071 7.52706 33.4851 7.94506 33.4851 8.65406V10.9441H32.8421V10.4741H32.7901C32.5711 10.8181 32.1841 11.0191 31.7741 11.0001C31.4871 11.0301 31.2011 10.9371 30.9861 10.7461C30.7721 10.5551 30.6491 10.2831 30.6481 9.99606V9.99706ZM32.8201 9.71006V9.43006L31.9951 9.48206C31.5291 9.51206 31.3181 9.67006 31.3181 9.96506C31.3181 10.2671 31.5821 10.4431 31.9451 10.4431C32.1601 10.4641 32.3751 10.3991 32.5391 10.2601C32.7041 10.1221 32.8061 9.92406 32.8201 9.71006ZM35.2551 8.14806V10.9451H34.5881V7.59106H36.8141V8.14806H35.2551ZM40.8571 9.26706C40.8571 10.3321 40.3141 11.0001 39.4601 11.0001C39.0331 11.0291 38.6271 10.8101 38.4201 10.4371H38.3671V12.0601H37.7001V7.59106H38.3421V8.14606H38.3921C38.6021 7.76106 39.0121 7.52606 39.4541 7.53606C40.3141 7.53606 40.8571 8.20106 40.8571 9.26606V9.26706ZM40.1711 9.26706C40.1711 8.55806 39.8331 8.13006 39.2671 8.13006C38.7061 8.13006 38.3551 8.56706 38.3551 9.27006C38.3551 9.96806 38.7051 10.4061 39.2651 10.4061C39.8331 10.4061 40.1711 9.97806 40.1711 9.26606V9.26706ZM41.7451 12.1461V11.5761C41.8171 11.5851 41.8901 11.5891 41.9631 11.5881C42.2571 11.6101 42.5211 11.4081 42.5741 11.1201L42.6241 10.9571L41.4011 7.59106H42.1271L42.9741 10.2551H43.0271L43.8721 7.59106H44.5791L43.3191 11.0831C43.0301 11.8991 42.7111 12.1611 42.0221 12.1611C41.9661 12.1611 41.8071 12.1551 41.7451 12.1461ZM45.0991 9.99306H45.7631C45.8281 10.2891 46.1071 10.4431 46.4981 10.4431C46.9421 10.4431 47.2151 10.2491 47.2151 9.94706C47.2151 9.62406 46.9701 9.47006 46.4981 9.47006H45.9921V8.95506H46.4891C46.8931 8.95506 47.0981 8.80206 47.0981 8.52106C47.0981 8.27506 46.8991 8.08706 46.4891 8.08706C46.1161 8.08706 45.8441 8.24406 45.8001 8.50906H45.1571C45.2571 7.87606 45.8501 7.43906 46.4891 7.52706C47.2931 7.52706 47.7521 7.88706 47.7521 8.45406C47.7601 8.77906 47.5381 9.06406 47.2191 9.14006V9.19206C47.6001 9.24206 47.8841 9.56606 47.8801 9.94706C47.8801 10.5841 47.3331 11.0071 46.4981 11.0071C45.7601 11.0071 45.1601 10.6711 45.0981 9.99306H45.0991ZM48.8411 10.9451V7.59106H49.5021V9.89806H49.5551L51.1121 7.59106H51.7741V10.9451H51.1121V8.62606H51.0631L49.5021 10.9451H48.8411ZM55.4161 8.14806H54.3521V10.9451H53.6841V8.14806H52.6191V7.59106H55.4161V8.14806ZM59.0091 10.0391C58.8221 10.6721 58.2051 11.0801 57.5441 11.0091C57.0941 11.0211 56.6601 10.8361 56.3601 10.5031C56.0591 10.1691 55.9211 9.72206 55.9831 9.27906C55.9231 8.83406 56.0601 8.38606 56.3591 8.04906C56.6581 7.71406 57.0891 7.52306 57.5411 7.52706C58.4811 7.52706 59.0501 8.16406 59.0501 9.21706V9.44806H56.6621V9.48506C56.6411 9.73406 56.7261 9.98006 56.8981 10.1631C57.0691 10.3461 57.3101 10.4491 57.5621 10.4461C57.8881 10.4841 58.2061 10.3241 58.3661 10.0391H59.0081H59.0091ZM56.6631 8.95906H58.3691C58.3871 8.73106 58.3061 8.50706 58.1481 8.34206C57.9891 8.17606 57.7681 8.08506 57.5381 8.09006C57.3051 8.08706 57.0811 8.17706 56.9161 8.34006C56.7511 8.50506 56.6601 8.72706 56.6631 8.95906ZM61.8381 7.59106H63.3621C64.0221 7.59106 64.4111 7.92406 64.4111 8.44406C64.4131 8.78406 64.1751 9.08006 63.8391 9.15206V9.20506C64.2491 9.23006 64.5671 9.57006 64.5621 9.97806C64.5621 10.5631 64.1191 10.9451 63.3771 10.9451H61.8371V7.59106H61.8381ZM62.4981 8.09906V8.96806H63.1601C63.5631 8.96806 63.7561 8.81406 63.7561 8.53006C63.7561 8.26906 63.5881 8.10006 63.2341 8.10006H62.4991L62.4981 8.09906ZM62.4981 9.45406V10.4371H63.2901C63.6841 10.4371 63.8951 10.2641 63.8951 9.94706C63.8951 9.61106 63.6561 9.45406 63.2061 9.45406H62.4991H62.4981Z" fill="white"/>
</g>
<defs>
<clipPath id="clip0_1_446">
<rect width="90" height="30" fill="white"/>
</clipPath>
</defs>
</svg>
